# xmcd CD database file
#
# Track frame offsets:
#	150
#	13785
#	27143
#	41515
#	54592
#	69279
#	81741
#	94144
#	109337
#	122952
#	136420
#	149370
#	163230
#	177392
#	215322
#	229262
#	240112
#	261475
#	272100
#	290425
#
# Disc length: 4350 seconds
#
# Revision: 0
# Processed by: cddbd v1.5.2PL0 Copyright (c) Steve Scherf et al.
# Submitted via: CDex 1.51
#
DISCID=2e10fc14
DTITLE=Duke Ellington - Essential [NOT] CD2
DYEAR=2009
DGENRE=Jazz
TTITLE0=Prelude To A Kiss [Gordon/Mills/E38]
TTITLE1=Pyramid [E/M/Tizol/G 38]
TTITLE2=I Let A Song Go Out Of My Heart [E/Nemo/M/Redmond38]
TTITLE3=Tired Socks [Hodges 39]
TTITLE4=Cotton Tail [E 40]
TTITLE5=Ko-Ko [E 40]
TTITLE6=Mood Indigo [M/Bigard/E 40]
TTITLE7=Don't Get Around Much Anymore [Russell/E40]
TTITLE8=Harlem Air Shaft [E 40]
TTITLE9=Take The 'A' Train [Strayhorn 41]
TTITLE10=ICan'tBelieveThatYou'reInLoveWithMe[Gaskill/M/McHugh47]
TTITLE11=Three Cent Stomp [E 48]
TTITLE12=Brown Betty [S/E 51]
TTITLE13=Perdido [Tizol 52]
TTITLE14=Primpin' At The Prom [E 54]
TTITLE15=Blue Rose [E 56]
TTITLE16=Jeep's Blues [E/H 56]
TTITLE17=Dancers In Love [E 57]
TTITLE18=The Star-Crossed Lovers [E/S 58]
TTITLE19=Come Sunday [E 58]
EXTD=YEAR: 2009
EXTT0=
EXTT1=
EXTT2=
EXTT3=
EXTT4=
EXTT5=
EXTT6=
EXTT7=
EXTT8=
EXTT9=
EXTT10=
EXTT11=
EXTT12=
EXTT13=
EXTT14=
EXTT15=
EXTT16=
EXTT17=
EXTT18=
EXTT19=
PLAYORDER=
